<?xml version="1.0" encoding="UTF-8"?>
<svg id="Layer_1" xmlns="http://www.w3.org/2000/svg" version="1.1" viewBox="0 0 863.68 291.21">
  <!-- Generator: Adobe Illustrator 29.6.1, SVG Export Plug-In . SVG Version: 2.1.1 Build 9)  -->
  <defs>
    <style>
      .st0 {
        fill: #c81516;
      }

      .st1 {
        fill: #fff;
      }
    </style>
  </defs>
  <rect class="st0" y="0" width="863.68" height="291.21"/>
  <g>
    <path class="st1" d="M154.49,183.35c0,14.22-7.36,26.73-18.48,33.92l-20.81-12.02-41.25-23.88v-67.48l60.24,34.64c6.24,3.59,11.53,8.69,15.08,14.95,3.32,5.87,5.22,12.64,5.22,19.86Z"/>
    <path class="st1" d="M117.71,107.6c0-14.22,7.36-26.73,18.48-33.92l20.81,12.02,41.25,23.88v67.48l-60.24-34.64c-6.24-3.59-11.53-8.69-15.08-14.95-3.32-5.87-5.22-12.64-5.22-19.86Z"/>
  </g>
  <g>
    <path class="st1" d="M273.97,110h19.99l22.63,71.03h-10.86l-4.97-15.73h-33.69l-4.97,15.73h-10.76l22.63-71.03ZM297.71,155.46l-13.8-43.84-13.8,43.84h27.6Z"/>
    <path class="st1" d="M326.93,110h10.55v61.29h32.57v9.74h-43.13v-71.03Z"/>
    <path class="st1" d="M378.68,163.37l9.74-2.94c1.83,7.71,7.92,12.18,17.25,12.18s15.32-4.97,15.32-11.26-4.26-9.44-10.76-10.96l-10.55-2.54c-9.34-2.13-17.96-7.41-17.96-19.58,0-10.76,9.03-19.58,23.95-19.58,13.09,0,22.22,6.6,24.45,17.05l-9.54,2.84c-1.42-5.99-6.8-10.45-14.92-10.45-9.23,0-13.6,4.97-13.6,10.15,0,5.99,4.67,8.52,10.15,9.74l10.55,2.64c10.86,2.64,18.87,9.03,18.87,20.7s-9.44,21-25.98,21c-13.9,0-24.05-6.9-26.99-18.98Z"/>
    <path class="st1" d="M445.55,155.76v-45.76h10.55v45.66c0,10.55,6.39,16.94,17.05,16.94s17.15-6.39,17.15-16.94v-45.66h10.45v45.76c0,15.32-11.06,26.58-27.6,26.58s-27.6-11.16-27.6-26.58Z"/>
    <path class="st1" d="M510.49,110h11.36l12.99,69.41,12.28-69.41h20.09l12.38,69.41,12.99-69.41h11.26l-14.51,71.03h-19.89l-12.18-69.41-12.38,69.41h-19.89l-14.51-71.03Z"/>
    <path class="st1" d="M615.3,110h42.72v9.64h-32.27v20.5h28.82v9.44h-28.82v21.92h33.38v9.54h-43.84v-71.03Z"/>
    <rect class="st1" x="677.69" y="109.99" width="10.44" height="71.05"/>
    <rect class="st1" x="779.29" y="109.99" width="10.44" height="71.05"/>
    <path class="st1" d="M706.33,110h22.43c22.22,0,36.33,15.63,36.33,35.51,0,21.31-14.11,35.52-36.33,35.52h-22.43v-71.03ZM727.84,171.49c16.34,0,26.38-9.54,26.38-25.98s-10.05-25.98-26.38-25.98h-10.96v51.95h10.96Z"/>
  </g>
</svg>